# xmcd
#
# Track frame offsets:
#	150
#	12720
#	26352
#	40892
#	55230
#	71135
#	85237
#	99655
#	113162
#	126537
#	140090
#	156802
#	172835
#	186585
#	201785
#	213230
#	228062
#	242385
#	256035
#	269462
#	282287
#
# Disc length: 3950 seconds
#
# Revision: 0
# Processed by: cddbd v1.5.2PL0 Copyright (c) Steve Scherf et al.
# Submitted via: EasyCDDAExtractor 16.0.6.1
#
DISCID=2e0f6c15
DTITLE=Συλλογικός δίσκος - Ο πιο καλός ο μαθητής-Γ. Ζαμπέτας 1
DYEAR=1992
DGENRE=Ποικίλη
TTITLE0=Μοσχολιού Βίκυ - Τα δειλινά
TTITLE1=Κόκοτας Σταμάτης - Ρωμιός αγάπησε Ρωμιά
TTITLE2=Τζανετής Πάνος - Χάθηκες (Δεν έχει δρόμο να διαβώ)
TTITLE3=Δούκισσα - Η μοντέρνα η Αθήνα
TTITLE4=Ζαμπέτας Γιώργος - Μάλιστα κύριε
TTITLE5=Μητροπάνος Δημήτρης - Θεσσαλονίκη
TTITLE6=Μαρινέλλα - Ποιος είν' αυτός
TTITLE7=Βοσκόπουλος Τόλης - Αγωνία
TTITLE8=Μοσχολιού Βίκυ-Ζαμπέτας Γιώργος - Πάει-πάει
TTITLE9=Μπλανς Μπέμπα - Μιάς πεντάρας νιάτα
TTITLE10=Ζαμπέτας Γιώργος - Ο πενηντάρης
TTITLE11=Αναγνωστάκης Πέτρος - Ήρθα κι απόψε στα σκαλοπάτια σου
TTITLE12=Μητροπάνος Δημήτρης - Ο ξενύχτης
TTITLE13=Ζαμπέτας Γιώργος - Αποσπάσματα από έρωτες
TTITLE14=Ζαμπέτας Γιώργος - Ο μαθητής
TTITLE15=Κόκοτας Σταμάτης - Το θέμα είναι να τη βρω
TTITLE16=Μοσχολιού Βίκυ - Ξημερώματα
TTITLE17=Τζανετής Πάνος - Τι σού 'κανα και μ' εγκατέλειψες
TTITLE18=Βοσκόπουλος Τόλης - Οι ουρανοί
TTITLE19=Καζαντζίδης Στέλιος-Μαρινέλλα - Με το βοριά
TTITLE20=Ζαμπέτας Γιώργος-Κούρτη Ρία - Αν μού σπάσουν το μπουζούκι
EXTD=
EXTT0=
EXTT1=
EXTT2=
EXTT3=
EXTT4=
EXTT5=
EXTT6=
EXTT7=
EXTT8=
EXTT9=
EXTT10=
EXTT11=
EXTT12=
EXTT13=
EXTT14=
EXTT15=
EXTT16=
EXTT17=
EXTT18=
EXTT19=
EXTT20=
PLAYORDER=
